<svg width="800" height="1000" viewBox="0 0 800 1000" fill="none" xmlns="http://www.w3.org/2000/svg"><rect width="800" height="1000" fill="white"/><rect x="40" y="40" width="200" height="200" fill="#EBF4FF" rx="8"/><rect x="280" y="40" width="480" height="48" fill="#EBF4FF" rx="8"/><rect x="280" y="104" width="320" height="32" fill="#EBF4FF" rx="8"/><rect x="40" y="280" width="720" height="32" fill="#4338CA" rx="8"/><rect x="40" y="340" width="720" height="16" fill="#EBF4FF" rx="8"/><rect x="40" y="380" width="720" height="16" fill="#EBF4FF" rx="8"/><rect x="40" y="420" width="720" height="16" fill="#EBF4FF" rx="8"/><rect x="40" y="480" width="720" height="32" fill="#4338CA" rx="8"/><rect x="40" y="540" width="720" height="16" fill="#EBF4FF" rx="8"/><rect x="40" y="580" width="720" height="16" fill="#EBF4FF" rx="8"/><rect x="40" y="620" width="720" height="16" fill="#EBF4FF" rx="8"/><rect x="40" y="680" width="720" height="32" fill="#4338CA" rx="8"/><rect x="40" y="740" width="720" height="16" fill="#EBF4FF" rx="8"/><rect x="40" y="780" width="720" height="16" fill="#EBF4FF" rx="8"/><rect x="40" y="820" width="720" height="16" fill="#EBF4FF" rx="8"/></svg>